<mxfile host="Electron" modified="2024-06-02T22:17:14.909Z" agent="Mozilla/5.0 (Windows NT 10.0; Win64; x64) AppleWebKit/537.36 (KHTML, like Gecko) draw.io/24.4.13 Chrome/124.0.6367.207 Electron/30.0.6 Safari/537.36" etag="ify2Y9SFaO4e-ej-lmOw" version="24.4.13" type="device">
  <diagram name="Страница — 1" id="0Me_hVA8JLuLEJQfANBF">
    <mxGraphModel dx="1430" dy="837" grid="1" gridSize="10" guides="1" tooltips="1" connect="1" arrows="1" fold="1" page="1" pageScale="1" pageWidth="827" pageHeight="1169" math="0" shadow="0">
      <root>
        <mxCell id="0" />
        <mxCell id="1" parent="0" />
        <mxCell id="YyzEPV21Y90kbuuKbUfG-1" value="Начало" style="rounded=1;whiteSpace=wrap;html=1;arcSize=50;" vertex="1" parent="1">
          <mxGeometry x="380" y="10" width="120" height="20" as="geometry" />
        </mxCell>
        <mxCell id="YyzEPV21Y90kbuuKbUfG-2" value="" style="endArrow=none;html=1;rounded=0;entryX=0.5;entryY=0;entryDx=0;entryDy=0;exitX=0.5;exitY=1;exitDx=0;exitDy=0;" edge="1" parent="1" source="YyzEPV21Y90kbuuKbUfG-1" target="YyzEPV21Y90kbuuKbUfG-4">
          <mxGeometry width="50" height="50" relative="1" as="geometry">
            <mxPoint x="480" y="100" as="sourcePoint" />
            <mxPoint x="590" y="110" as="targetPoint" />
          </mxGeometry>
        </mxCell>
        <mxCell id="YyzEPV21Y90kbuuKbUfG-4" value="Ввод length" style="shape=parallelogram;perimeter=parallelogramPerimeter;whiteSpace=wrap;html=1;fixedSize=1;" vertex="1" parent="1">
          <mxGeometry x="380" y="40" width="120" height="20" as="geometry" />
        </mxCell>
        <mxCell id="YyzEPV21Y90kbuuKbUfG-5" value="" style="endArrow=none;html=1;rounded=0;entryX=0.5;entryY=0;entryDx=0;entryDy=0;exitX=0.5;exitY=1;exitDx=0;exitDy=0;" edge="1" parent="1" target="YyzEPV21Y90kbuuKbUfG-6" source="YyzEPV21Y90kbuuKbUfG-4">
          <mxGeometry width="50" height="50" relative="1" as="geometry">
            <mxPoint x="440" y="70" as="sourcePoint" />
            <mxPoint x="590" y="150" as="targetPoint" />
          </mxGeometry>
        </mxCell>
        <mxCell id="YyzEPV21Y90kbuuKbUfG-6" value="Ввод min" style="shape=parallelogram;perimeter=parallelogramPerimeter;whiteSpace=wrap;html=1;fixedSize=1;" vertex="1" parent="1">
          <mxGeometry x="380" y="70" width="120" height="20" as="geometry" />
        </mxCell>
        <mxCell id="YyzEPV21Y90kbuuKbUfG-7" value="" style="endArrow=none;html=1;rounded=0;entryX=0.5;entryY=0;entryDx=0;entryDy=0;exitX=0.5;exitY=1;exitDx=0;exitDy=0;" edge="1" parent="1" target="YyzEPV21Y90kbuuKbUfG-8" source="YyzEPV21Y90kbuuKbUfG-6">
          <mxGeometry width="50" height="50" relative="1" as="geometry">
            <mxPoint x="490" y="130" as="sourcePoint" />
            <mxPoint x="610" y="130" as="targetPoint" />
          </mxGeometry>
        </mxCell>
        <mxCell id="YyzEPV21Y90kbuuKbUfG-8" value="Ввод max" style="shape=parallelogram;perimeter=parallelogramPerimeter;whiteSpace=wrap;html=1;fixedSize=1;" vertex="1" parent="1">
          <mxGeometry x="380" y="100" width="120" height="20" as="geometry" />
        </mxCell>
        <mxCell id="YyzEPV21Y90kbuuKbUfG-10" value="Ввод index" style="shape=parallelogram;perimeter=parallelogramPerimeter;whiteSpace=wrap;html=1;fixedSize=1;" vertex="1" parent="1">
          <mxGeometry x="380" y="310" width="120" height="20" as="geometry" />
        </mxCell>
        <mxCell id="YyzEPV21Y90kbuuKbUfG-11" value="int[] mas = new int[length];" style="rounded=0;whiteSpace=wrap;html=1;" vertex="1" parent="1">
          <mxGeometry x="360" y="130" width="160" height="20" as="geometry" />
        </mxCell>
        <mxCell id="YyzEPV21Y90kbuuKbUfG-12" value="" style="endArrow=none;html=1;rounded=0;entryX=0.5;entryY=1;entryDx=0;entryDy=0;exitX=0.5;exitY=0;exitDx=0;exitDy=0;" edge="1" parent="1" source="YyzEPV21Y90kbuuKbUfG-11" target="YyzEPV21Y90kbuuKbUfG-8">
          <mxGeometry width="50" height="50" relative="1" as="geometry">
            <mxPoint x="240" y="160" as="sourcePoint" />
            <mxPoint x="290" y="110" as="targetPoint" />
          </mxGeometry>
        </mxCell>
        <mxCell id="YyzEPV21Y90kbuuKbUfG-13" value="" style="endArrow=none;html=1;rounded=0;entryX=0.5;entryY=1;entryDx=0;entryDy=0;exitX=0.5;exitY=0;exitDx=0;exitDy=0;" edge="1" parent="1" source="YyzEPV21Y90kbuuKbUfG-16" target="YyzEPV21Y90kbuuKbUfG-11">
          <mxGeometry width="50" height="50" relative="1" as="geometry">
            <mxPoint x="380" y="240" as="sourcePoint" />
            <mxPoint x="310" y="210.83333333333337" as="targetPoint" />
          </mxGeometry>
        </mxCell>
        <mxCell id="YyzEPV21Y90kbuuKbUfG-16" value="SecSem_Dll.Enter_massiv(mas, length, min, max);" style="shape=process;whiteSpace=wrap;html=1;backgroundOutline=1;" vertex="1" parent="1">
          <mxGeometry x="255" y="160" width="370" height="20" as="geometry" />
        </mxCell>
        <mxCell id="YyzEPV21Y90kbuuKbUfG-17" value="" style="endArrow=none;html=1;rounded=0;entryX=0.5;entryY=1;entryDx=0;entryDy=0;exitX=0.5;exitY=0;exitDx=0;exitDy=0;" edge="1" parent="1" source="YyzEPV21Y90kbuuKbUfG-18" target="YyzEPV21Y90kbuuKbUfG-16">
          <mxGeometry width="50" height="50" relative="1" as="geometry">
            <mxPoint x="390" y="250" as="sourcePoint" />
            <mxPoint x="450" y="160" as="targetPoint" />
          </mxGeometry>
        </mxCell>
        <mxCell id="YyzEPV21Y90kbuuKbUfG-18" value="SecSem_Dll.Output_massiv(mas, length, Lab2_Sem3_Main_DGV);" style="shape=process;whiteSpace=wrap;html=1;backgroundOutline=1;" vertex="1" parent="1">
          <mxGeometry x="212.5" y="190" width="455" height="20" as="geometry" />
        </mxCell>
        <mxCell id="YyzEPV21Y90kbuuKbUfG-19" value="" style="endArrow=none;html=1;rounded=0;entryX=0.5;entryY=1;entryDx=0;entryDy=0;exitX=0.5;exitY=0;exitDx=0;exitDy=0;" edge="1" parent="1" source="YyzEPV21Y90kbuuKbUfG-20" target="YyzEPV21Y90kbuuKbUfG-18">
          <mxGeometry width="50" height="50" relative="1" as="geometry">
            <mxPoint x="395" y="350" as="sourcePoint" />
            <mxPoint x="455" y="260" as="targetPoint" />
          </mxGeometry>
        </mxCell>
        <mxCell id="YyzEPV21Y90kbuuKbUfG-20" value="SecSem_Dll.Sem2_Lab3_Calc_Geometric(mas, out double result);" style="shape=process;whiteSpace=wrap;html=1;backgroundOutline=1;" vertex="1" parent="1">
          <mxGeometry x="212.5" y="220" width="455" height="20" as="geometry" />
        </mxCell>
        <mxCell id="YyzEPV21Y90kbuuKbUfG-25" value="" style="endArrow=none;html=1;rounded=0;entryX=0.5;entryY=1;entryDx=0;entryDy=0;exitX=0.5;exitY=0;exitDx=0;exitDy=0;" edge="1" parent="1" source="YyzEPV21Y90kbuuKbUfG-26" target="YyzEPV21Y90kbuuKbUfG-20">
          <mxGeometry width="50" height="50" relative="1" as="geometry">
            <mxPoint x="405" y="360" as="sourcePoint" />
            <mxPoint x="450" y="220" as="targetPoint" />
          </mxGeometry>
        </mxCell>
        <mxCell id="YyzEPV21Y90kbuuKbUfG-26" value="SecSem_Dll.Sem2_Lab3_Count_Condition(mas, result, out int index);" style="shape=process;whiteSpace=wrap;html=1;backgroundOutline=1;" vertex="1" parent="1">
          <mxGeometry x="203.13" y="250" width="473.75" height="20" as="geometry" />
        </mxCell>
        <mxCell id="YyzEPV21Y90kbuuKbUfG-27" value="" style="endArrow=none;html=1;rounded=0;entryX=0.5;entryY=1;entryDx=0;entryDy=0;exitX=0.5;exitY=0;exitDx=0;exitDy=0;" edge="1" parent="1" source="YyzEPV21Y90kbuuKbUfG-28" target="YyzEPV21Y90kbuuKbUfG-26">
          <mxGeometry width="50" height="50" relative="1" as="geometry">
            <mxPoint x="415" y="370" as="sourcePoint" />
            <mxPoint x="460" y="230" as="targetPoint" />
          </mxGeometry>
        </mxCell>
        <mxCell id="YyzEPV21Y90kbuuKbUfG-28" value="SecSem_Dll.Sem2_Lab3_Calculate(mas, result, index, out int[] output);" style="shape=process;whiteSpace=wrap;html=1;backgroundOutline=1;" vertex="1" parent="1">
          <mxGeometry x="196.26" y="280" width="487.5" height="20" as="geometry" />
        </mxCell>
        <mxCell id="YyzEPV21Y90kbuuKbUfG-29" value="" style="endArrow=none;html=1;rounded=0;entryX=0.5;entryY=1;entryDx=0;entryDy=0;exitX=0.5;exitY=0;exitDx=0;exitDy=0;" edge="1" parent="1" source="YyzEPV21Y90kbuuKbUfG-10" target="YyzEPV21Y90kbuuKbUfG-28">
          <mxGeometry width="50" height="50" relative="1" as="geometry">
            <mxPoint x="440" y="310" as="sourcePoint" />
            <mxPoint x="470" y="240" as="targetPoint" />
          </mxGeometry>
        </mxCell>
        <mxCell id="YyzEPV21Y90kbuuKbUfG-31" value="" style="endArrow=none;html=1;rounded=0;entryX=0.5;entryY=1;entryDx=0;entryDy=0;exitX=0.5;exitY=0;exitDx=0;exitDy=0;" edge="1" parent="1" source="YyzEPV21Y90kbuuKbUfG-32" target="YyzEPV21Y90kbuuKbUfG-10">
          <mxGeometry width="50" height="50" relative="1" as="geometry">
            <mxPoint x="415" y="520" as="sourcePoint" />
            <mxPoint x="440" y="330" as="targetPoint" />
          </mxGeometry>
        </mxCell>
        <mxCell id="YyzEPV21Y90kbuuKbUfG-32" value="SecSem_Dll.Output_massiv(output, index, Lab2_Sem3_Resh_DGV);" style="shape=process;whiteSpace=wrap;html=1;backgroundOutline=1;" vertex="1" parent="1">
          <mxGeometry x="201.25" y="340" width="477.5" height="20" as="geometry" />
        </mxCell>
        <mxCell id="YyzEPV21Y90kbuuKbUfG-36" value="array = mas;" style="rounded=0;whiteSpace=wrap;html=1;" vertex="1" parent="1">
          <mxGeometry x="380" y="370" width="120" height="20" as="geometry" />
        </mxCell>
        <mxCell id="YyzEPV21Y90kbuuKbUfG-37" value="array2 = output;" style="rounded=0;whiteSpace=wrap;html=1;" vertex="1" parent="1">
          <mxGeometry x="380" y="400" width="120" height="20" as="geometry" />
        </mxCell>
        <mxCell id="YyzEPV21Y90kbuuKbUfG-38" value="" style="endArrow=none;html=1;rounded=0;entryX=0.5;entryY=0;entryDx=0;entryDy=0;exitX=0.5;exitY=1;exitDx=0;exitDy=0;" edge="1" parent="1" source="YyzEPV21Y90kbuuKbUfG-36" target="YyzEPV21Y90kbuuKbUfG-37">
          <mxGeometry width="50" height="50" relative="1" as="geometry">
            <mxPoint x="400" y="340" as="sourcePoint" />
            <mxPoint x="450" y="290" as="targetPoint" />
          </mxGeometry>
        </mxCell>
        <mxCell id="YyzEPV21Y90kbuuKbUfG-39" value="" style="endArrow=none;html=1;rounded=0;exitX=0.5;exitY=0;exitDx=0;exitDy=0;entryX=0.5;entryY=1;entryDx=0;entryDy=0;" edge="1" parent="1" source="YyzEPV21Y90kbuuKbUfG-36" target="YyzEPV21Y90kbuuKbUfG-32">
          <mxGeometry width="50" height="50" relative="1" as="geometry">
            <mxPoint x="490" y="440" as="sourcePoint" />
            <mxPoint x="540" y="390" as="targetPoint" />
          </mxGeometry>
        </mxCell>
        <mxCell id="YyzEPV21Y90kbuuKbUfG-40" value="" style="endArrow=none;html=1;rounded=0;exitX=0.5;exitY=1;exitDx=0;exitDy=0;" edge="1" parent="1" source="YyzEPV21Y90kbuuKbUfG-37" target="YyzEPV21Y90kbuuKbUfG-41">
          <mxGeometry width="50" height="50" relative="1" as="geometry">
            <mxPoint x="400" y="340" as="sourcePoint" />
            <mxPoint x="450" y="290" as="targetPoint" />
          </mxGeometry>
        </mxCell>
        <mxCell id="YyzEPV21Y90kbuuKbUfG-41" value="Конец" style="rounded=1;whiteSpace=wrap;html=1;arcSize=50;" vertex="1" parent="1">
          <mxGeometry x="380.01" y="430" width="120" height="20" as="geometry" />
        </mxCell>
      </root>
    </mxGraphModel>
  </diagram>
</mxfile>
